#define rave.xbm_width 50
#define rave.xbm_height 50
static unsigned char rave.xbm_bits[] = {
   0x00, 0x00, 0x00, 0x00, 0x00, 0x00, 0x00, 0x00, 0x00, 0x00, 0x00, 0x00,
   0x00, 0x00, 0x00, 0x00, 0x00, 0x00, 0x00, 0x00, 0x00, 0x00, 0x00, 0xe0,
   0x0f, 0x00, 0x00, 0x00, 0x00, 0x00, 0x1c, 0x70, 0x00, 0x00, 0x00, 0x00,
   0x00, 0x03, 0x80, 0x01, 0x00, 0x00, 0x00, 0x80, 0x00, 0x00, 0x02, 0x00,
   0x00, 0x00, 0x60, 0x00, 0x00, 0x0c, 0x00, 0x00, 0x00, 0x10, 0x00, 0x00,
   0x10, 0x00, 0x00, 0x00, 0x10, 0x00, 0x00, 0x10, 0x00, 0x00, 0x00, 0x08,
   0x30, 0x00, 0x20, 0x00, 0x00, 0x00, 0x04, 0x78, 0x00, 0x40, 0x00, 0x00,
   0x00, 0x04, 0x78, 0x00, 0x40, 0x00, 0x00, 0x00, 0x02, 0x38, 0x60, 0x80,
   0x00, 0x00, 0x00, 0x02, 0x00, 0xf0, 0x80, 0x00, 0x00, 0x00, 0x02, 0x00,
   0xf0, 0x80, 0x00, 0x00, 0x00, 0x81, 0x00, 0x60, 0x00, 0x01, 0x00, 0x00,
   0x81, 0x00, 0x00, 0x00, 0x01, 0x00, 0x00, 0x81, 0x00, 0x00, 0x00, 0x01,
   0x00, 0x00, 0x81, 0x00, 0x00, 0x00, 0x01, 0x00, 0x00, 0x01, 0x01, 0x00,
   0x00, 0x01, 0x00, 0x00, 0x01, 0x01, 0x00, 0x10, 0x01, 0x00, 0x00, 0x01,
   0x02, 0x00, 0x18, 0x01, 0x00, 0x00, 0x02, 0x04, 0x00, 0x8e, 0x00, 0x00,
   0x00, 0x02, 0x1c, 0x00, 0x83, 0x00, 0x00, 0x00, 0x02, 0x70, 0xc0, 0x81,
   0x00, 0x00, 0x00, 0x04, 0xc0, 0x7f, 0x40, 0x00, 0x00, 0x00, 0x04, 0x00,
   0x00, 0x40, 0x00, 0x00, 0x00, 0x08, 0x00, 0x00, 0x20, 0x00, 0x00, 0x00,
   0x10, 0x00, 0x00, 0x10, 0x00, 0x00, 0x00, 0x10, 0x00, 0x00, 0x10, 0x00,
   0x00, 0x00, 0x60, 0x00, 0x00, 0x0c, 0x00, 0x00, 0x00, 0xc0, 0xff, 0xff,
   0x07, 0x00, 0x00, 0x00, 0xc0, 0xff, 0xff, 0x07, 0x00, 0x00, 0x00, 0xc0,
   0x00, 0x00, 0x06, 0x00, 0x00, 0x00, 0x40, 0x01, 0x00, 0x05, 0x00, 0x00,
   0x00, 0x40, 0x02, 0xc0, 0x04, 0x00, 0x00, 0x00, 0x40, 0x0c, 0x20, 0x04,
   0x00, 0x00, 0x00, 0x40, 0x10, 0x10, 0x04, 0x00, 0x00, 0x00, 0x40, 0x20,
   0x08, 0x04, 0x00, 0x00, 0x00, 0x40, 0x40, 0x04, 0x04, 0x00, 0x00, 0x00,
   0x40, 0x80, 0x03, 0x04, 0x00, 0x00, 0x00, 0x40, 0x80, 0x03, 0x04, 0x00,
   0x00, 0x00, 0x40, 0x40, 0x04, 0x04, 0x00, 0x00, 0x00, 0x40, 0x20, 0x08,
   0x04, 0x00, 0x00, 0x00, 0x40, 0x10, 0x10, 0x04, 0x00, 0x00, 0x00, 0x40,
   0x0c, 0x20, 0x04, 0x00, 0x00, 0x00, 0x40, 0x02, 0xc0, 0x04, 0x00, 0x00,
   0x00, 0x40, 0x01, 0x00, 0x05, 0x00, 0x00, 0x00, 0xc0, 0x00, 0x00, 0x06,
   0x00, 0x00};
